<mxfile modified="2021-10-12T08:00:30.969Z" host="app.diagrams.net" agent="5.0 (Windows NT 10.0; Win64; x64) AppleWebKit/537.36 (KHTML, like Gecko) Chrome/94.0.4606.71 Safari/537.36" etag="D5I77G9FH16eeSOYq15f" version="15.5.0" type="github">
  <diagram id="Ht1M8jgEwFfnCIfOTk4-" name="Page-1">
    <mxGraphModel dx="2390" dy="1402" grid="1" gridSize="10" guides="1" tooltips="1" connect="1" arrows="1" fold="1" page="1" pageScale="1" pageWidth="1169" pageHeight="827" math="0" shadow="0">
      <root>
        <mxCell id="0" />
        <mxCell id="1" parent="0" />
        <mxCell id="N8xC8AFXhA9VaVeWU0zL-12" value="&lt;font color=&quot;#000000&quot;&gt;VPC&lt;/font&gt;" style="points=[[0,0],[0.25,0],[0.5,0],[0.75,0],[1,0],[1,0.25],[1,0.5],[1,0.75],[1,1],[0.75,1],[0.5,1],[0.25,1],[0,1],[0,0.75],[0,0.5],[0,0.25]];outlineConnect=0;gradientColor=none;html=1;whiteSpace=wrap;fontSize=12;fontStyle=0;shape=mxgraph.aws4.group;grIcon=mxgraph.aws4.group_vpc;strokeColor=#248814;fillColor=none;verticalAlign=top;align=left;spacingLeft=30;fontColor=#AAB7B8;dashed=0;" parent="1" vertex="1">
          <mxGeometry x="-80" y="-550" width="890" height="330" as="geometry" />
        </mxCell>
        <mxCell id="N8xC8AFXhA9VaVeWU0zL-85" value="" style="fillColor=none;strokeColor=#5A6C86;dashed=1;verticalAlign=top;fontStyle=0;fontColor=#5A6C86;labelBackgroundColor=none;fontSize=15;" parent="1" vertex="1">
          <mxGeometry x="649" y="-540" width="131" height="290" as="geometry" />
        </mxCell>
        <mxCell id="N8xC8AFXhA9VaVeWU0zL-79" style="edgeStyle=orthogonalEdgeStyle;rounded=0;orthogonalLoop=1;jettySize=auto;html=1;exitX=1;exitY=0.75;exitDx=0;exitDy=0;startArrow=classic;startFill=1;" parent="1" source="N8xC8AFXhA9VaVeWU0zL-14" target="N8xC8AFXhA9VaVeWU0zL-78" edge="1">
          <mxGeometry relative="1" as="geometry" />
        </mxCell>
        <mxCell id="N8xC8AFXhA9VaVeWU0zL-14" value="Public subnet" style="points=[[0,0],[0.25,0],[0.5,0],[0.75,0],[1,0],[1,0.25],[1,0.5],[1,0.75],[1,1],[0.75,1],[0.5,1],[0.25,1],[0,1],[0,0.75],[0,0.5],[0,0.25]];outlineConnect=0;gradientColor=none;html=1;whiteSpace=wrap;fontSize=12;fontStyle=0;shape=mxgraph.aws4.group;grIcon=mxgraph.aws4.group_security_group;grStroke=0;strokeColor=#248814;fillColor=#E9F3E6;verticalAlign=top;align=left;spacingLeft=30;fontColor=#248814;dashed=0;" parent="1" vertex="1">
          <mxGeometry x="260" y="-510" width="350" height="250" as="geometry" />
        </mxCell>
        <mxCell id="N8xC8AFXhA9VaVeWU0zL-55" value="" style="rounded=0;whiteSpace=wrap;html=1;fillColor=none;" parent="1" vertex="1">
          <mxGeometry x="270" y="-680" width="320" height="260" as="geometry" />
        </mxCell>
        <mxCell id="N8xC8AFXhA9VaVeWU0zL-86" style="edgeStyle=orthogonalEdgeStyle;rounded=0;orthogonalLoop=1;jettySize=auto;html=1;exitX=1;exitY=1;exitDx=0;exitDy=0;startArrow=none;startFill=0;" parent="1" source="N8xC8AFXhA9VaVeWU0zL-13" target="N8xC8AFXhA9VaVeWU0zL-64" edge="1">
          <mxGeometry relative="1" as="geometry">
            <Array as="points">
              <mxPoint x="230" y="-287" />
            </Array>
          </mxGeometry>
        </mxCell>
        <mxCell id="N8xC8AFXhA9VaVeWU0zL-13" value="Private subnet" style="points=[[0,0],[0.25,0],[0.5,0],[0.75,0],[1,0],[1,0.25],[1,0.5],[1,0.75],[1,1],[0.75,1],[0.5,1],[0.25,1],[0,1],[0,0.75],[0,0.5],[0,0.25]];outlineConnect=0;gradientColor=none;html=1;whiteSpace=wrap;fontSize=12;fontStyle=0;shape=mxgraph.aws4.group;grIcon=mxgraph.aws4.group_security_group;grStroke=0;strokeColor=#147EBA;fillColor=#E6F2F8;verticalAlign=top;align=left;spacingLeft=30;fontColor=#147EBA;dashed=0;" parent="1" vertex="1">
          <mxGeometry x="-70" y="-510" width="300" height="250" as="geometry" />
        </mxCell>
        <mxCell id="N8xC8AFXhA9VaVeWU0zL-15" value="EC2 instance contents" style="points=[[0,0],[0.25,0],[0.5,0],[0.75,0],[1,0],[1,0.25],[1,0.5],[1,0.75],[1,1],[0.75,1],[0.5,1],[0.25,1],[0,1],[0,0.75],[0,0.5],[0,0.25]];outlineConnect=0;gradientColor=none;html=1;whiteSpace=wrap;fontSize=12;fontStyle=0;shape=mxgraph.aws4.group;grIcon=mxgraph.aws4.group_ec2_instance_contents;strokeColor=#D86613;fillColor=none;verticalAlign=top;align=left;spacingLeft=30;fontColor=#D86613;dashed=0;" parent="1" vertex="1">
          <mxGeometry x="280" y="-480" width="320" height="170" as="geometry" />
        </mxCell>
        <mxCell id="N8xC8AFXhA9VaVeWU0zL-16" value="EC2 instance contents" style="points=[[0,0],[0.25,0],[0.5,0],[0.75,0],[1,0],[1,0.25],[1,0.5],[1,0.75],[1,1],[0.75,1],[0.5,1],[0.25,1],[0,1],[0,0.75],[0,0.5],[0,0.25]];outlineConnect=0;gradientColor=none;html=1;whiteSpace=wrap;fontSize=12;fontStyle=0;shape=mxgraph.aws4.group;grIcon=mxgraph.aws4.group_ec2_instance_contents;strokeColor=#D86613;fillColor=none;verticalAlign=top;align=left;spacingLeft=30;fontColor=#D86613;dashed=0;" parent="1" vertex="1">
          <mxGeometry x="-50" y="-480" width="240" height="210" as="geometry" />
        </mxCell>
        <mxCell id="N8xC8AFXhA9VaVeWU0zL-19" value="" style="shape=image;html=1;verticalAlign=top;verticalLabelPosition=bottom;labelBackgroundColor=#ffffff;imageAspect=0;aspect=fixed;image=https://cdn4.iconfinder.com/data/icons/logos-and-brands/512/97_Docker_logo_logos-128.png" parent="1" vertex="1">
          <mxGeometry x="-30" y="-400" width="50" height="50" as="geometry" />
        </mxCell>
        <mxCell id="N8xC8AFXhA9VaVeWU0zL-20" value="" style="rounded=0;whiteSpace=wrap;html=1;fillColor=none;" parent="1" vertex="1">
          <mxGeometry x="-30" y="-400" width="200" height="120" as="geometry" />
        </mxCell>
        <mxCell id="N8xC8AFXhA9VaVeWU0zL-24" value="" style="sketch=0;outlineConnect=0;fontColor=#232F3E;gradientColor=none;fillColor=#527FFF;strokeColor=none;dashed=0;verticalLabelPosition=bottom;verticalAlign=top;align=center;html=1;fontSize=12;fontStyle=0;aspect=fixed;pointerEvents=1;shape=mxgraph.aws4.rds_mysql_instance;" parent="1" vertex="1">
          <mxGeometry x="51" y="-379" width="78" height="78" as="geometry" />
        </mxCell>
        <mxCell id="N8xC8AFXhA9VaVeWU0zL-25" value="" style="outlineConnect=0;dashed=0;verticalLabelPosition=bottom;verticalAlign=top;align=center;html=1;shape=mxgraph.aws3.android;fillColor=#8CC64F;gradientColor=none;" parent="1" vertex="1">
          <mxGeometry x="488.25" y="-417" width="73.5" height="84" as="geometry" />
        </mxCell>
        <mxCell id="N8xC8AFXhA9VaVeWU0zL-26" value="Node.js server with express" style="text;html=1;strokeColor=none;fillColor=none;align=center;verticalAlign=middle;whiteSpace=wrap;rounded=0;" parent="1" vertex="1">
          <mxGeometry x="420" y="-333" width="180" height="20" as="geometry" />
        </mxCell>
        <mxCell id="N8xC8AFXhA9VaVeWU0zL-44" value="User&lt;br&gt;" style="sketch=0;points=[[0,0,0],[0.25,0,0],[0.5,0,0],[0.75,0,0],[1,0,0],[0,1,0],[0.25,1,0],[0.5,1,0],[0.75,1,0],[1,1,0],[0,0.25,0],[0,0.5,0],[0,0.75,0],[1,0.25,0],[1,0.5,0],[1,0.75,0]];outlineConnect=0;fontColor=#232F3E;gradientColor=#4AB29A;gradientDirection=north;fillColor=#116D5B;strokeColor=#ffffff;dashed=0;verticalLabelPosition=bottom;verticalAlign=top;align=center;html=1;fontSize=12;fontStyle=0;aspect=fixed;shape=mxgraph.aws4.resourceIcon;resIcon=mxgraph.aws4.desktop_and_app_streaming;" parent="1" vertex="1">
          <mxGeometry x="970" y="-390" width="62" height="62" as="geometry" />
        </mxCell>
        <mxCell id="N8xC8AFXhA9VaVeWU0zL-57" style="edgeStyle=orthogonalEdgeStyle;rounded=0;orthogonalLoop=1;jettySize=auto;html=1;startArrow=none;startFill=0;" parent="1" source="N8xC8AFXhA9VaVeWU0zL-45" target="N8xC8AFXhA9VaVeWU0zL-46" edge="1">
          <mxGeometry relative="1" as="geometry" />
        </mxCell>
        <mxCell id="N8xC8AFXhA9VaVeWU0zL-45" value="github commit" style="dashed=0;outlineConnect=0;html=1;align=center;labelPosition=center;verticalLabelPosition=bottom;verticalAlign=top;shape=mxgraph.webicons.github;gradientColor=#DFDEDE" parent="1" vertex="1">
          <mxGeometry x="310" y="-651" width="70" height="62" as="geometry" />
        </mxCell>
        <mxCell id="N8xC8AFXhA9VaVeWU0zL-66" style="edgeStyle=orthogonalEdgeStyle;rounded=0;orthogonalLoop=1;jettySize=auto;html=1;entryX=0.5;entryY=0;entryDx=0;entryDy=0;startArrow=none;startFill=0;" parent="1" source="N8xC8AFXhA9VaVeWU0zL-46" target="N8xC8AFXhA9VaVeWU0zL-54" edge="1">
          <mxGeometry relative="1" as="geometry" />
        </mxCell>
        <mxCell id="N8xC8AFXhA9VaVeWU0zL-46" value="AWS &lt;br&gt;codedeploy" style="outlineConnect=0;dashed=0;verticalLabelPosition=bottom;verticalAlign=top;align=center;html=1;shape=mxgraph.aws3.codedeploy;fillColor=#759C3E;gradientColor=none;" parent="1" vertex="1">
          <mxGeometry x="494.13" y="-650" width="58.25" height="60" as="geometry" />
        </mxCell>
        <mxCell id="N8xC8AFXhA9VaVeWU0zL-54" value="code build" style="shape=image;verticalLabelPosition=bottom;labelBackgroundColor=none;verticalAlign=top;imageAspect=0;image=data:image/png,iVBORw0KGgoAAAANSUhEUgAAAggAAAB+CAYAAABBGOmWAAAAAXNSR0IArs4c6QAAIABJREFUeF7tXQeYFEXa/qpnE2nZSM5RxXAGVEQyInp6dwZQUVBQDxFF0TNiWCOep4gBFRRQgiCYPVHJwdP/DGdGJS05bCTDstP1/c/X3TVT09M9O2l3Z3ernkeB6Ypv9Uy99UUGqjgi8EmHjV28Xu8fiAxQqsGtf4vPtKPJLS4rarfLDcY3mm56TNPgAXpObalQW0T60+ybITx0fUG7x9z6mJK75XIAbSG3BqV+OMJC3cNfgnKAFG/yb+MONi9UW6kQUAgoBBQCCoF4IWCeWKoEIfBB63UzEeA640CXDnNBDEzigFdcsaPzAjf43myW/zAA5PnaGH35CQcd+ByYN0VL6Txyd/PNbv28mL3tZ2DsREEQDLJhkQuTeMBPDNjuO0tanK+2UiGgEFAIKAQUAvFAQBEEBxTfb71+EAB+bpIDBty69dvIwrbUZM/Jl2xuv9dpI+ZkrU/3piQtAYAzrUPckBiIPuiAp3K0jHUat6/NRrfNfCln+0cc4GIiKSYxMCUPRj/W/Mz+zXkeSYdJq+5Lmrfyptxv4/GCqD4UAgoBhYBCoG4ioAiCw76/1/qPYkAtiw5gOnTlw1hIA8q51nv4rg5r3F6bGc3yR2oAM+jWbz/QfRIFhjNH72k3yq2PF3N29eWofwwADWWJgSAETgRmY/8kvmGwRkPMWnFD1vXAmKwhqZtvuVq1QkAhoBBQCESMgCIINsjebbVuIQC73LidW8+E3YFJFAzIfrlqR8eTXMlB0y0dGOMbhc0B1dONzvxwc4RyZHjFmIJ277v1Mzln2yOA7CEhbQgkBoFqBnp2KFPDL+5PMnUYHIBxgHKNt1gzOtfVRiLiN0Y1UAgoBBQCCoE6gYAiCNI2L2j7e3tN96xGgFbidi6IgkkWGNkjlCVpKZlDt7c+4vaGTG+6+QsA6Gke6H4JgiAYRp8M/z5mT9vX3Pp4MXvbvV7QJgbaPPjVCkKyIc/z61s9fF9bTZMJAiD+caxByl++uDZ9XZ14o9UiFQIKAYWAQiAuCCiCIBOElhvWM4adhG7fb1xoEAPT64DBP67Z0eFZN/Rfb7ZlCENcYFziLa8Fkxj4vRY4soKxha2buvUxNbOk8SHt8G8ArLksNRB2BqKdPM9fr9Rg55kaMM7MwSwJgjUwYBKevWJ0zn/j8taoThQCCgGFgEKg1iOgCIK1xQtbb7gTOT4jXA8DbvvCPRGBZzXQ61+4oXOZ25vxWpP8nxA0n/pBEANx0BtujQzH3FzQ5lW3PiZl7RyPAJPs7pB+aYKfbFAfZQ0ZfD3eg0czgTHd2lIbQQCEdcc0z9lf3JxRWuvfarVAhYBCQCGgEIgZAUUQAGBSqy/rteC5nzHGevttDyjWQIDNAB++q4MnFOKvN9n8Pw7sVFFH2A7INgwmUcAxtxY5E4Tncgqbc35spyAqwW39HgxGXwxg2eQkAN0cNQRBAIYM0jxa1ieKJMT8xVEdKAQUAgqB2o6AIggAML/lxpcBcIzfDdEfq8BULRjujvNH7G5/ldsLMa3Z1u7A8TMAyPIf7pIHg9WPYccAuGZcUeveTn39K2vnLkBoJsiFbIMQYHcAJoHZcS7jfwxhmnC3qIggAOKMZeOyr6/tL7Zan0JAIaAQUAjEhkCdJwgz2+Vn1CvXS8WhTnEPqAhiYBkZHqi/O6npUHA3TJzadPMMRG2kaCt7HkgkQ/KMgP96k5MG3LWn2SFq80yjnTnoYWORQZ5MBOToi0bfVoAk6/Of3n2Rn5PFkw6GTRCoc4bdlo3LXhvbq6NaKwQUAgoBhUBtRqCOEwRkb7XctBqQnRuo3/d7C5if85uv293xFbcX4dUm2x4CwEeCjBv90gc/MZAiIAKwrznCVwAaAOpjdNBS3OwMhNGjHFOBAb/y4X3N3u7zRvEjjONDPhWDpSchN0dhpEh/korBIBIcly8bnz2gNr/Yam0KAYWAQkAhEBsCdZogvNUi/28I6ItDIEIZ65LtgY4s//o97Tq4wTwVvk3mTXLXI7K24vD2h0Q2ciaYEgkrPLLoR0gG7LkdDDpiy/9A/cpzMqQayP7y6IFcCqIEPacXNkrWtE8BsaehYqiIIBBZALZw6e2ZQ2N7fVRrhYBCQCGgEKitCNRpgjC3+cZ9yFg6Haj+G7p1oBt5EuCAxjwDRu5u843bCzAld9tEALhXkAChTiB/SGHwGGBPID53COFMx7aTnYE/YJOwaWBbONMHPL6vqS9Ec9+ZxYMB8dMKCYJlzEjxEbRjvP+Se3J31taXW61LIaAQUAgoBKJHoI4SBGRzW+T/DxH+5DvEA6QGhrCejAm33rCnfdtQ0gNvbtNj5q1fEAspGVOAOsEfFyEonoEtQyR1paPmG9YeU+HR/bmO+9Z3RuERpmtpISUIPoIAoJXj4SV3ZzeI/vVRLRUCCgGFgEKgtiJQJwnCrGb5fRjj/+aoNfQHQ/JnbTSkAYj7byho3zjUxk/J3bYHEZrYbQ/kvAm+AEuOGSED4xnIhpKCuIj25pwM1cDMRw/kOOZv6DuloCFL0VYAsjMMmwMnGwSJINBzBBi+7M6sObX1BVfrUggoBBQCCoHoEKijBGGTzoH5ruh08PrUAOLvyK7/e2GbGW6wvpS7bRwiPC/IgSFFkDItmlIFE16OcIwjJAEzx5TTR4v+7XYGwbkbGJR2BfhlDPZfdX3uCrd59Z9WNBmB3RY2QUBcvrdR1uDvRrPy6F4h1UohoBBQCCgEaiMCdYogzGq69UTQvCs4shzjoPapBix7AX/ehA07C9p0zTPv4I7lxZztv3GE40Q/AREYhbQA4a27SltcLXcwMXPXFER2s8+uwCAMZvoE/5z82yKrF9aNQCjoCbBqWI5GPgluc+v7WvFWxqF1OBIEy3py2tK7s0bXxhdcrUkhoBBQCCgEokOgThGEN5rlFwFAtl2nL3sIEIwZKVr9UMmYJmdtL2QMDJKhB2RolA52ZKvbljbrPxSYEOpbBADZExl7XgNg19sTOdnnIf977XUaFJ+jm7QA2YpVV+f0d9vy81/fl3VM9xaHTRCQwdK7MuvUuxDd10W1UggoBBQCdQeBOnEozG6y/RSvVr6M2ciBnShYV/I5owvaDnd7BSZnbzuLAVvNAVLkmAQUYMlob3kntC9tlmQnB6LPxxsXvqID3uSTPkgZH4NiKQDA4VyAX+9EKMuy5AbIdEB+8aprmnzqNs/+U4seB84mBMVBsNkgmM/JNRJ/95Tr/T+foFJD152vv1qpQkAhoBBwR6BOEIQ3muUf1JEFWOsH5TgwJQG/HmApZ4nohnbYEJBNzt75LQKcJp7J8Qx8+gimDb63pOnnbrA/2rjwFQS8yT4HWWJg2kWYZe14KN/bDZPNYEfWgc7hwKrhOeluY/R5rWiMx8teDpsgcHLa0C5Yem9j13mrL5JCQCGgEFAI1B0EajVBeKNZ/t0I7FGOmEr2/1Rk4z/hKWC6NBrPJtxS2OZJt+2flL3jZgCYIiQFwoYhMAMk/MSTjwyaUNBhj1M/D2cVp4OXL0HAM8WcZEmGKUEQ5IBB0ZkI62+yPggkCKAdhQkrbsxxnO+Al0v/hhp/z7C+FIGTSFLgIkEQ6oiM7zKSFi4MVIvUna+DWqlCQCGgEFAICARqJUF4o9mmfwCy23WAluIQtuv77dkSNQZFYwpa54Z6NSZl76Czm6IYigROgYGNkEGyznP/caAF2To4lrz0XTdzSJpCD4NtIcwm5nnO4GgWeNc+gNqxDDSTMdkIAuNQzgCGrLg250P7YP1fLX4MEB4IV4Lgt1dgi5fcl3G++oooBBQCCgGFQN1GoNYQhOnNNl/gAb0ZojbdPEelgEVSECRx+NoO5yId9EHjCtt97/Q65MGKpEZZx81BwCvsng++A90Yg31w/96ml7i9Ug82KujFGFst90F1TfLiJwZGn8hg50W4ettl3Mz66EwQ6EkZ6OyalaOy36F/DJxa0tgLcKWG+KpMDny5GCqQINA4DNiQxfdnGP2pohBQCCgEFAJ1E4EaTRDezNzYBlO0pcAYraOljlhPSAxoOwPyFxj7K9QMsreB8fkXY4ta9mYuroP/zClslMS9xTpCckAoZCn4EQPYyQB73re3+Wa3V+mh9MJZOjKfAaRfRSGnhbaySTL48qu5+mCtDL5nAB1DEAQAnWIY4BZjJV6WAgBt7B4MYRMEM6nT7sX3ZzSvm18JtWqFgEJAIaAQ8J+Yccbig1Z/XJLEINU4pKW+A/z9bM+MurrHVxuZ1okjtPVy1sKj8ZMBWD0AaIAIab4YAiI1s3s8Ayu+gJnjwOdpIG7rZmTC724panVGKAj+lbUTZYNC2QZBil9w2wN7m73gSg4aFvbTGVtOz/0ShGCpgaXC2ACeIz2ePdCiqM+copsxBaeEJgj+UUUuhlgIgiFFOKY9t/iRxnfE+dVQ3SkEFAIKAYVADUGgUiQIH7f+wwsMPHIkH/mANfMWBCYmCjyArVu0lNVQ5DqQbQnsdgVB/7YkBvLnvmRKNL6ZFXHQ7SUtl7jt11OZu+8HwCfEc+G14CcG1A+Dh/Y1CYnlhEZFlBSpuWkkGRi50W4ngRwefu5o5qNizF4Li29nOn/OZ4PAzYyNvjBOEvOKG0HgQDkmrlj8YOYHNeRdVtNUCCgEFAIKgTgiEFeCsKDVr1n1teRVCHii7wCVwxjLBn7WIuxhh+35CHyZFq22gTdwXyhjn6RAPJeNEMVnVMlQEfhiFsBDt5W0esydHJQ0Rij7ggGcGDxPUy3AkR3yeDzHP1CSvc2tn/saFi1kDC732xr4CZB/PcJmgi167nDGn+W+zn2n6CzNi58BQobh5lg1BIGAemXxg1nkuaGKQkAhoBBQCNQxBOJKED5q9ccFoLGPAdATFGdA5CUQxCBI5M98OQp8h7ww3rNJEkSAIiGJkMT8xqFtDzbky7RIz6zKjOE144pazw213xMzdv4AjJ0iqyaoPtk2iDkAwNu4L/eaPGBep77ua1h8Agf8DwPI8Od7sAiChIGpAoHDLBVaTt6budfeV8/5RZd6EN+tWoJgkKD3ljyYcVkd+16o5SoEFAIKgTqPQNwIwvvNfmvnSdHynS30pQPRiRjYpANCDWAX58v/FuRAlhjQ353UCQZp8Is01jDgL4wraRvSSv/pzJ29vKit9kkfLLWA3Y4B9uV6QuVsuLtByZPA8D6jH0u1ImId+MiMZZdwqDN/7PUfsx9yeyv7vFX4DQCcEZkEgW1CxHWa8OTQoSUgnBSYzIkFZn4kGwRhjYmsmOv8tKWPZG2tId8WetlOJnUOkHEnQIcaMu9YpknqoJ8AoNSlE1JC/QgABbEMUsltuwJAe2uMAQCwDwD+Z/nvbASA9ZU8vuo+MgTIYOwcsgtzaLYdAH6JrLuEqJ0NZhA8sp8ju7RGCTErgP0AQK7z9D0IVeKOe9wIwkdt/ljKkQ3wn8PmTV62+pcPeLOeqb/3HfJCPy9JDOyxAlwiIBr9BEgSJOmD75Bn7K88jS+5Y3vrI6FQ/mdWcSudl1PExKZmW3OesnGkaagIf3n0QO7Hbn3d1bD4EQbwEJEKUUQ/gbgA8CSm/zDLO/GLS3IedCUIcwv7AWOLQYckAz3RSYDromSfYKhUtPYrx2T6PCsGvXKgiV5W/h0gtJJiH7gTBFJnAExc/HDG/QnyZaloGu8BwLkAEDKmRUWd1LLn9IasA4Bia12HAeAvhotsYpQ1Fjlo6TIdUt99BwAUntwxAFliLKPOzGI8AFwOAKcCABmP2wvtERG6XjUMkZ8B4AQA8GX6rWHzF7iLab8OAG/Gsoa4EIR326wbrSG86j/ofcH7pMNfPsBt6gQpDoAgDNRQRD20ey34xrHUCU4kw5IarCP3Q0D4cFxJq8nhAPVk1q4TkLNfRV1ZnSCTFcbYOy32ZQ8bDc5pkm/PKM1IKaeIiewMO7EIJDIMjuUi/Pp8uWGr6D1W1uqroa13uJOEgueBa+PCIQi9d2d58vKcM1IOeK7kF8ahm8jFYNQShEOWIFj2DhpqvT57JP2LcDCsxjp0C/29GseviUOTlCzPkj6QFMI1g2klLC6NVHQWWQm3+5Nq6O003PUlaj06K46ncPQRTJBuvRcDwP9F0Ka6qt4JAM9U1+CVPC6prIdYFwIi42GXuBCE91uv24oIrWWRuXGIi4iD1nRk+wDzud/lzzHxkU1lIBMDANiNiLehBiVitV6fFYBxwYYjiL/fU9KKxC5hlYmN93RAhms4sBZOdgyS3QFoCF3zDuTSrcyx3FWv+DLQmKHGEPEYjD59LpZ+A8tdQ3TcM0Rn5lHOvl7zt9yzXCech1qfjsWGzMBVgkAHPAKEIgjnPVs8BIEtCJcgMIT9nz/SOCNUmumwQK7cSq8BwA2VO0St7Z1+RChQGKki6IZYFYV+rEjaE0kptG6mf0TSSNWNGQFS1X0JllQ1gt7ya4iaj37LO0ewrppYlc6NFQBwj6W+q3ANcSEIFY4SQYXpufnXgcZeRYBUWZpAXVhpBQ5qiBeMLmwb19vsk9k7j0Nd+43GsEskHMjL108cyHE9xMelFnROSUpaJwiSXZ0gcj/Q84NdOWx4nOIcyXp/eHHNJU0MKYFT6TW78DQN2BrGob7xXKgYDGLAjDtgRQSBmg18tuQDQPgreXWEkiCYCaIM74nJnz/WuKoOjwjeGl9VRRCiQc25TV/rpi7UEvHr2expFgC4Zk0NYzASBf8WRj1VJXYE6OB0vQyF0f37AHBpGPWqs0pdIAgyvpSUj1zpifS5loQjCDTT15psOQ8BFotZyy6LHgbLRhe0HhjPN+mJzD0nI8ISjqyJLP6XCYowfkSAkpQD2S3zgB11m8Od9UqXIYP+4lylerJxo2zP8OPbZabGK4AgsC1Q7u2+Zmhzui0FlQsWYeqh4uJPNA5kzOUjCEYMBCoWQWAAnyy7Kfsit3n2fWZnThKkFYZPEODo549lOOkc47kdsfSlCEIs6AW3JYkCGcaOjm+3Rm+xEgQSX9P7T2oRVSoPAZIc0GUslsiqZKdFNi+JXOoaQRB7QVLuGwEgyHOOKiQkQaCJTWuyBX1ugYaqwZzq2MLWcZvzY413twfQFgLD00N5SAR4UzB++5P7mzzv9qaPr1d6CWPwns8JQPLQCPCw0AC2jymHkn7cp3fwew6QBEB7b/WlOSHdC/u+WWTyGUuCYCcIBuk4xq9adlvufLf5Dnh632DG+KfhSRAM8sHLkr9PXZnXz9Gts5p/ARRBqJwN+BYArotQ/xxqJqQDnGcZusU64y7KwyFWCF3bEzmoyHI+nMEVQQgHpeqt0w4AyFNN3JGN2cTtsI332l5tstUIb0xFDrp0oLxR1n37MtzcucKaxuMZO9sCJD3IEQajkfHROqODPCFkzwWjDj90sLT+i9DZ1fr79vp7vwFAwzBReC/Y7Rno394GAL/NKAMkZyFL1CATBMOVEdi4NZflvOi2qH5vFt6ByJ4VZmVOBAE4/H6kLOu0r+5gjp4bA5442JSllC9nHE5wM1L0qxgMgoAIOHLxE5kxWceGtVGRV1IEIXLMwm1BEjNKRPZZuA1C1IsnQSAVyGAAIBKjSvwQIINECg3fLA5dKoIQBxAruQvyFCIPuoDf9YQkCFObbO2oI2wIDIhk8hnO4YckT0qvsYVNDkYC2GON93T0cD2Za9q/kbGOsvog2JVSTp7kM+s++tTBnJDi9fENSpdyhAGyW6PwxBBzNQwWEUp+/GhfZ4+eWhyQjlkWO5jeA/9uWD/n8k8vZI6EpG/eiiRod9IC4MYPN7gQBOCcd195a27IH9DznipFvx+nZA/BrRRWwmfVmmNK8uEGH+e1IHe5RCqKIFT+bpCnSCz6aJphPAkC9UfSLIqhELZBcuXDVKNHIHUCHRj+5DixLacmEASKmbIhtmXWitb/AIDnhDdTwhGEV7K39+cafmQlZvJFRfTd8s0L98qWxfvOHwrdKECMa3my8e4nkLE2ZgW8hANrEGgL4CcCVMMploJ5HhqRE19++mDWWLfBxtYr7uFh2iJAluHclySNALi79H+Nnt+dX/g+AlzoKkEgFYEX5q6+Mvcat3H7vllwLuia4briRhCMttwzdPmtGQvd+jlvYikZrJgxGGxujjYJgokIZ/M/m9j4qgT7SiiCUPkbUg4AfwWAT2MYKt4Egaay1pIkuIY8j2G+dakpxX6hA717HBddEwgCLfde67/GcVx7TeuKgqn1FGQpYoKwoPnGNuVgpFd2LCEjEOmeVuUcMhG09GQNj+OIjYBhOw6ephyNABW+jfGFR5YDFFlxD4zjXnajxMDET07ulfJN3pQYmAe/6Cs4/kJApsX1Tx/MJl2na7m13r7nGeA4uzQiSDoB7OdpZY0o0h/0nlfcmjfSt/pUBMESBMO7AMHbxM1gkfrpN6N4Bon9RaImX1InKVIV49qbWU0zrl84lNmTahprGvSP3Q0wO5XyPZwbYDDpIkGgsRjThnw6sVHIiJRV/O2IliCQj3BNL1kAcCIAkPdBusNiSFRsZFiNQ/mn9UMabVeVQRBoLpRUjUhugB412knW0XbkJkzfo3iWmkIQxJqTrYBJieD2mGJFdxzk8L2mZ03iKOmR95z6LYyIIMxvue4iAO19BJYUEHLYF8/AHs3QrsP3D+f3TAgU55vfbBFIyX9I++0QRK4FKSOitSwnYhAsFahojuZ8TAJipIMu97CylhMPOnsU0NC31N/3OHCcIMdJCEoPbWWvTEU8/qVj6b5gPr0+KbwJdXzFWLULQQCEFYfql1/03cXOIv2e0wsbJTNYxHTNONydCQKRqPJzV9za9D9u3/wBE4sHa1wzboa+uYQiCIC/JPPG53z0NDsQz1+TGPqKliBE9D2IYX7V2ZQC1hBJIPEx+UGbLrLRl1gwqyyCQKsh8kKhzRVJiHxviVz5sshG3ty1RU0jCHFceqV2RaGhL7CiWdL3OaxggGHO6N8U5CrsL3keoNa55aajGkBycJwAv5cBDW7PhyC8EeiZeX6Zw4oAQsbnvmiK/rwJRgIjyY5SjCsOX9l4URzqYgw62uX+7bYA9gPcJdMimeTd+K/D2TPcQB0P2+odSzMOfEOV4SRBMEM1G4L7a14/1pCst32l7wpM8u4v/AMYdPAfytRRYMhk9PLBa65uSr6rjqXPzOJnNS/cEYogkLdDioaNPx2XTbG9HcvAp0q+Yjo7OxyCQB14OfRY+nTjRImUpghCmN9+SuUNAOSNY4QTj6JQRD2SWERTKpMg0HwoKt6kaCZWh9tUhuRAwKkIQtW+WOSNQPZyOTEO2ztsgjC3xSaypr/FOASl0MhuOn0ny32nTIu+vmyqBHHYmuP5MzSapMEsxp829YJ58EuhnqV001Q9mLyIvvxjWGvUGeDfQ5EDqndL2t4FCGxI8Hr9UgiLFG1hxw6d9To0DYol3/Oj3Wcz0L5g3DIKMhYZSBDIe2D1VbkhY4T3m1b0JgAb4SZBMN0h8Y1lt2ePdHtxLnhyV64X0j5nuhFn3Ugt7WiDIMVc4IBDFj+dkQiqBkUQIv9FmA4AoyJvZijGojViq2yCQMuZCAA1JX9IFPDHtUllSQ4UQYjrNkXUGakZ6XtN7smnRNTSX3lgWARhVtP8+zwefFIcsPRnwO1filNgPqP/SwmKrL87ZVo0Ezb5Z6Q7SAyIRFhRFH0Vg1wgbQmV7HO0/1tIDPwpmP1zRoS1DT1JffIOpFMwFtdyKxSn87SkfXYsZBWFRRz0GeUNzfjPLuXcjwsKmG4lGBIEwQp4ZIoljPktb+rJHuRmR9Brxq7cJG/qNkBMDTjUTaNCX7wEDdmpS8Zn/uA2l/MeL53BEEwSEQZBYAxmnVUvfaRb3ocoX85omimCEA1qZtZEkxCGXxKdINBKSNXwVPhLqpM1xwDAy5W8ciVBqGSAK+ieMqM62SVVOKsKCcLMdvlpycdwJSCcJcTn8g0+lFeAHAEx8NZvMzK0VAlOKoMguwKH/A4y8RDGh6IvewbJAOmHMFIU8RaQ7QCGzz9zKOtfFSE3Jq2kF6DnMwTm0+VaqgSf/YJQj3gY/+drx9LJQjZk6fV+wXfA4DSRzllERPQRBIRjyHn/Nde42xH0m1pMotXxoQgCIOxfNj4rpKXuoMdLpgGyG30EQQrnbFAVSYJA/9Y87OJFE9NJb1WdRRGE6NCfAwBXR9i0JhAEWhJdbCZEuLa6Up0uAa7q0ziCoAhCHMGMois6oyh+ScTZNSskCLOa569mgEbH8k05QBpgkyAIOwOn+ALUTwCpkDwT6JlsZyDnMLCL8EVd2b7BngpalmSYfzeL1QYRNUqCQJwh/4jOBk85mrklHPCHwK8pWSmt9zNmWoWLOQhJSGAOCfb1jPIG7smXpAF7fVR4O3B8DmwhkyWCYORaWDUsWwNmUADH0m9qcRlDSPFLHgIlCNYBv3DpnZlD3fo4P29fJ0zC30EHjzFSBQSBfCMKDqxP+W7aGeQGV11FEYTokKdQykY21ghKTSEItCTKVvlIBGurC1W7WSGUDbfsSi6KIFQywGF0T7ENbg+jXkCVkARhdrPNf0bg/3bT6Zuif+O4Mf4vGyDKhzVH5kWAIwB4EJGVIRiBfw4hQDEHOMQBDmsARYhaMYKOnHuCcs4G5qDVjOdc+lCXUnjbn0lZjI1U38a/dVbqZfq7kw/n7ooEtFuSD52ha/qHCGBmfJQ9LmQ7CsNOg4FH0y+dcSydkpWEVXq9X7AROKMQp+BzSBQqBvKqIGmHDvevGpFDOlbHcu7cvZkpB/SS0AQBf2dePmDJPbk73foZ9EjpCwDs1nAJAgC+/emzFBvBnbyEBUL0lRRBiA672k4QCBWyn5oSHTy1stVSK5dFVSxOEYSqQDn0GPEnCGQpF09foWA2EtfuK30LyJNjd+oBCs7kMbM+mkOaagv/6oSkhYFn0BvetCURTQyR9XqvyLQ4ELd2O0HggBy0i9cMz/rEre/+EMs2AAAgAElEQVT+r5Q8DoAT/DEW/DYIom/kcGTZXVmh3N3YoEf28vAJAkkq9JMXPZf1c0Rrjl9lRRCiw7IuEARC5hwA+Co6iGpVK0rMU5XBgBRBqP7XpzIIQvWvKlFmMCZt70CO2hK7ASJ5G1ihB4yp+mwekG3UdDbwDai3OdI1nPtOwVjG2EshCAIxktmrRuSMcOu773Ol7TxpuBE5Gp4PspGiTD6Qw1XL7spyTeZ03sOFLTSWvCMcFYM1l72fPts4M9I1x6m+IgjRAVlTCAIdNBTPIdpCxpgUSCpR4nZEu45Y2pGrNAXdibZQmO2QQeMcOlYEIVq049dOEYT4YRnY002pBw5zAIquleRkZyAkBj7DSGBQ7N2R9mmIpE6h5ko5FvSTTtzEdGht1LMkCKbhIfOlc0YGM1cNz3F1UesxaVu9eqn1jXwJbgQBuLYbuLf/0ntyfnOeE7LzH973MnC4yWRAZi27kaIcn5Fx9u6i59Ivr6z9CNGvIgjRgV5TCAK5bFHSKFdCG8byqT1JzeIpHA1j2ISoQvlrGsQwk3EAMDCK1M2KIMQAepyaKoIQJyCNbm6tt+9Mrw6DUGO36sia0M+JaSgpRX6UYzRINhgMYfZsvb7r7T6cefZ8t/hsj85NcagLQQCEXcCh/8qROb7IjPa++08pXkTRttwJghHnYMqSuzONGBdOZfDD+89Fzo18D+ERBMzniP0/m5wZsfQkHGwUQYgRpeDmNYkgULa522KMGkfRRCkDZEQJ3+KOetV1SC7WFCGVDvdoC6kN+wDAG4ogRAthtbZTBCEe8P8Ddjc4mFZ/GyJLQ4B69qBQYgwnqYH5DBfX99a/aBqwmK35ey8sHA0Ir4YgCACMjV85Its1xObpU3fWb+xN3c04a+RTE8j2DRTngAPoSZ6ey+9M/9INw4EPl7TxcG1LhQSBYjcYRIIdWPR8elS+tzHso5IgRAdeTSMItMqbYzQ6JN/wqrDgj25H4tvqvwBwZoxdNrII1YeKIMSIZPU0j4Yg/FShm2P1rKVyR/077KyfWq/BiZxDd5KYky1gEmNncoQRwp7A7p0gZiSHeTZllH4bBMN9E/lN83iDqfFYQa8FRWcyQEqglOmPieBXMUjuj8NXjsohX3bH0n9K8TOMsztDEQQE2AiI/Zfem0VhOoNK3zxMSy3fRzev04xV2+Ig+FQMgiBQHEoNLvl0cvoH8cAizD4UQQgTKFu1mkgQKLQ5+XYfH92SjVYUIpwkCUQWamOh33fKuDo3hsVRsDiyWfje6kMRhBjArMam0RCEh+JGEMbDl/XaZ+UmJyeztKNlDerrOqZpWnJD1PhxRzk/GYC1BQbdNQZp4lZOYNFBLEdPRO6PK2A8t4VKdohnYOrlrQiOcgwGs3/qw4xQLKkINADeAIE1lGMWGNEaLVUC1ZefyTEdZBIh16vv4X97/VgD+gLFrfReULgWEI4PSRAA81eOzDVcI93KgBdLMBRBoHbMixcunpDlmsZ38IT9ExH4vWa2R+vV8dkkWCNLBAE02OGtBwMXT/Qnp4obMM4dKYIQHcA1kSDQSimDJR1gsfyOFVoZ8aJDLrFb5QIAqfliScxFfcgRZRVBSOw9d5od5WSg9yBS+5O+vi/WtKabHwBkj/kOUimjoXDhc0qoZKrHpTgI1mEdlFDJFiDJOFiNA1m+gduTMwVmehR5GPzzkce1zcMaT6zHLb2zkAIYfUvkgOblbyvHeXC2QQCETV6e1nshsB3xfH8unrqz/r6M5EMVSBDozJ64alSOa+z5AS+UjgOOlJzHKP4bv6liMAoHKMnKSPlutLt65PwJezFsgmC+HJMWTUmn5DlVURRBiA7lOwDg2QibVkegJDJSJBsEuXQEgOUiWVqEaxDVv7UkCcVRtk/EZucCgGk3FF3ZbUkO7C7LiiBEh2d1taL3YGWUeVP8yZqmNdmqI6DmmGlRTtAkCIBLpkU6WAMSKllGfQGhlqPItGieX9ZBbc2BPhO2AHKmZDroxaVCjv5o9CEFMxLSBr9ngr+dPVKkHATKbqhIdRt7yk6fVp5BblRxL73fLjRzQdq8GOQIi8DgyMqROa43hf4vFN3CuEYJt4ziRhBAx0VLHsj6s9siBt+373lkOM6QIEj+naI/H9kgFYT1fNFL6bHc8CLBUxGESNDy1/0CAHpG2DRRCAJNm9JYRxTwzGGtpK6g1Lm1oZD3E2XbJLuBaEt769Zpb68IQrSIVn27tQDQKsr3YBsA9Dd+uKc12fo+Av7NHzI48GZOdQJu+lJ4ZHFYChF8IBEIDKts1tEC/Ivckj6ZdU1EAw9nU+JApSIpRWgVgV+dYD/wRd/+sa2IicYHfomHj0QgfLQA0/5aWfvfZ96eSxC09wyCYB3MAbkWLEC0cvbs8tHZ/3Cbx4DJJSTdaEHPXQkCh62Ms76LH8zId+onLw+1r47t0wMIgqFyMGs7EQTmYQs/eb6Ra1jnOOKmCEJ0YNaUZE1OEgSxYjoU6cbcNjoIjFYkgXtaCiweQ1fV1pSCQZGtULSFfk1IkvywSweKIESLbOW3u9AyvO1shRePZcR3AeByNqnVtnr1y/AzBOgtZzaUD2ExilumRSNJkTQV50yLztEGjTPXMSWz/1CWJQJyXZ/UQJIKBGWSdJAYCFsEmQjQ3909E6QASPb5MviioZ564QxglRZ8JVyCwHRWsOLG7KYxEgQA5EOXPJC90LGfPNTOL99fynRI90kQKiAIwOGbRS+nx2pFHc7LrghCOCgF1jkfAMiQNC3CpokkQRBTbwkA2yNch1ydYoaQQV4sB2wMw8fclA6Gb2KMkkgki96JI4ogxLwfld3BEBsRIDu0SL/HbnOki+Qu9nLu1l4AbLV88/dJBawPTZVBoJ2BecgGRhGUpQnGwW9JGgIyKrrEETDrm1IDu8RAPDPHI2m7XcJhzcNOBmz/FkaIJjGg/4dhZyDNV0gMArDiMPYdSKvUdKl93yo4lzPtE4aY7ipBMA5pTdd0HL3spuzpTrvef1LxDKYxI41zkARBqAssVcbiBzJd1QKD79n3ADB4LFyCwBBKMQkvWPR8Y3K3qsyiCELk6JJdCgXAibSQuiqadjQO+eXPoxtKhIOGkiCIri6xAimlRNi3XJ38/VfH0L46mlLo5A0AQAZp0Ray5RhQQePaIEGgw48uLKb1ulno72TPQll364r7q9tWE0k2UgQYBAGBrfbnFfCL8GUDRKosZ1qU1M+Wd4C/nagrZ1p0lhIImwJf/J0gOwM7ERHjCiNCcyy7caOkhrBIgOv6JGNEoy+fnYO/TztpEetLYvjCfJ5GQVsqtQxZgJ4CXvRf4HB6aIJgrHv8yhud4yKQemBNRqmR4SGIIEiGiqS+iIkgSKoQ06CRwjXApf+eEn7SqigBVQQhfODoIJltGeeF38pfMxa7ksokCBTxdBYAXBnNoqw2FECJ3B9riiSBDrdpAHB9DGum5E2kJjUir4YoNZUgrAAAEZeFCADZWMTyDscAdUI3pffgL0KCxF7M2boKgPUWBzFN3U4MfJICSxUgbtDioAz4t+9ADr6dG31L6gQh6hcZIeU5iLpCrREo4TD7DjIkDKFOCFqfRAwCJBYO3g+y9ETYIHCEzRwOn/oBZFLik0ovvecVfs0QusdCEGiSAyaXmLITX/pmy4shiCBkaG5ZGSuUICiCUOnvQwwDdLJi6bsm+gqjbzJ+onTB0ZbKJAhiTnQDiiVyIPVDae7JgDPRC3kJPRPDJFdZOSrC6aImEASyRzmJjOwAoKo8qMLBLtHrBL0H7MWcbSgIgHHoygaIshrB8k4QKwxSLxjZDQMNCAXZEH8GjONTJciujOLgl1wfrQHlAz7YxiEwZoGcadEkEn6iGGzYGDxnQT4CJCA2LFJAHzEf6tENrEpKEEGQc1ibjM5IBR1KghAJQThQfLD+V8+1dtRDKoJQJVse70HEbZisminIUCzlPgB4KoYOqoIgkCSBgofFYhx7yEoORbfPRC2k6nENkx7GpIlI/S0MyYHoKtEJAr3nZIdF6gJVwkeAQvJfZuU68bViz2dvN20AXeIZ2A33ZJG/6IUOXbtdgHzrDjyg/d5xTvEMAuwVfMGNAm0OnPo212AZSxpSCr/HgfFXOdOi3TMi4PC32UDYiIG15lXvQQplhauyUhFBEF4F4RAEObESSSQMzwObBGGdd2+9zXntKbFNUKmFBKEivWuV7XOUA5FhEukN6b9YIguGMzwdKLFkA6QxqoIgiLWQDzjZFMRSelhRF2PpozLa3mV5XUTbN/0sDo8w0mIiEoRTLTddnxt3tIDUwXZk1EvqKSMGkr2w/7T5N5rGhH5FgZ8wmNVN40PzU9lbwZfAyDpwRV1RzzjWrcOa2jPjADd7EIe8v39rLGkmxoiSpMH6p1EjSB1hVPVHOpJtJAI9LPzrFKoNcw7m5wGqDBkt0qUDO8YBtKYpO7+4ZNfN/arqZaLsjrxrt/8yZKf5VAw2CUJUBIEkK8IDIdgGgfSasvbIt9xaSBCqaitr+jikmKJobGUxLqQqCYLHSjB0TQxzJr083bINw60EKWQYPSbGuZAV/DsR9pFoBIHC2tM6qivFfITwJVR1CpBGqkZK4e1Y2G8d5vgOAXHwyjW5dUYIMYPvcJYqicM1gDxYhy51TkSB+jH/7icJtvPXICLmIS3TFfMz7pNz+J/LJED0JdfzfWbrj+brRgTEWtzmYfWpJ3uTul5YMHpjVWx33wUFf+I6LGbIcisgCKgBu3XZjVlTnObVf3Jpbwa4SrY/oHpOEoQ6ZqRYFdtY08c4BgDDAID8o2MtVUkQaK5EEn4BgONimPgeADgFAOjP6i63AwDF1o+lkG5+UhQdJApBoDDbZB9S2RKzKCBK6CYkMaB8O/QOkUtsyML+6DgX5QPT7WCMhCjYD246tOkzupKaLpOytCLwkhqYpyGwrjG3oMPdkibYlhm8JpOkyMWUQjhIRqTPTTzs86BURbgh6ah+5oUl4/ZXBHKszx3jIDhKEFgp8/KTlo/JcQz3LAIlVUgQytnvi/MyXL94g+8tzQPQHnZ1c6x5RoqxblFtb09v23lWSON4rLWqCQLNubl1U2oYwwJIv30RAFSJYbLLPE+3AkLVi2Ed0UgOxHCJQhC+E4njYsChLjUlYjvKcoV1lRjYAWHrOs6lhk3EIS5XcDxQJYmCk9pBFtXLxzF9LksYTKkCfRKo3hDjBxKFQImC0+HvKNmwHfTUt5BkBKxTkk7Ic5SlCaKt3E5jOPDiHbcsq+y3rPe8Qrq5zQ2IpCjiWfsiGBqRIb9ZeWO2a0CicAlCqEBJ5Cr5f8f2lwMHMySm9V9AJEVjbv5Qy4zjYQDtok9eblTZxl7RujlW9hbW5P7JeIkyAsaTCFcHQaA9uBYAKEYISRSiLeQtQLr/6ihNAODrGKNFklv2CzFMvroJAkkOKHcGuSmq4owA2Y79Zv06k31B1NmF2R8d51zBgM2ncXy2BwHifPNJwGHvswEwZ+d0OBufW7d9J6Ig/Ark27ldsWC3QXB6blcJyDkZfGQjDKIgSxOcVBfyODJxykqq17HX1lGbKvNN7T2vkDb7uAoJQpnefOXYJpRkJaj0e77kQg3xXQCW5ipBMBeer2Nqr+UP1HeUQoQValkQBB95wW8/MSIpGiuozKIIQvzQ3WIdhM4RNWMbp7oIAs36YgD4KLbpG+mTY7FpiHZ4EgmfEW1jAHjE+i+W72F1E4RYMYgBvoRsWgoA9wCAnGiMyDwFvbJr/SNeAPuj/exeTNMCoobZb/syCZBHkNUO4vC2H65uEgUhsSCiYLYhPwi6lDpZIPjzMtD4QZINSe0gP3eziZCJQ6i+nNoHkA6aK8N3WzVLvuqM70aXR4x+GA16L9jbHvRyg4CEIggA8NLKUTm3unU58LnSW5GhcXMIRRAYsncXT8hwjXA36IG9pYxDRshcDHaCgGzhJ1MSOhdDGDtRZ6r8DgCTY7l1hIFUdRIEmh5J5CgrJM0j2kI2AGTkVRWFDPAo+RKpSaItFGWxi5vhcQSdVidBoIyj8cKc7MdkY1tSG90NABTt1RsBHrW6KlvfaUEugJesc0+xi9QNVbIkTTCJgt2GQNAH09tB/MuJKMiGgb6DVrIB8JMFs6azxECM4TCPMOwTTKmEXSISbBgZiSEj6LzDX/bc6pjcKNa3p/eCop9ARwr6EYIgYKGm8R7Lr2vqajQ54PmS/wECuQOFJAhL7ncPsdw3Lz8ttTzziOn5IGVztOdiEM8shtVgT6OkhQsDnCtjhcWtvZIgRI8sqRLoZkwSg0ohu9LUqpsg0FQoJPN70cNltKwqSQKpFbrHMFcyMD3NIhkxdGM0rS6CQIG56CJLKoZoC6k4X7cak/X+vmg7qivtDEn/+k5z5zJgxKqDCIF5UAd/HmyfIFwPxQEuDvlAXzkno0D7Z2TMqFsSBeEWKW+IbJ9gn4d9DeK5k6wlmPwE2knIfVWkdmBJkHXR1ptJ3BO30nd2aV+eqn8EOhppW90kCIhswarrs69wG7j3v/a2T07lm4TAyVmCwI4C4uAl92dSNC3HMnjC/okI/N5ICAIm8wmfPpfxZNxACd2RIgjhAU0iyCKr6k3V4L6XCASBlk9BlOiQj0WSQB5DJLmLRWzvtmuUX2FzjLkBSPQcS34G+9yqiyDQe/pKeK93QC366Sd1aazBwaIYuuY3MQjC9uPeyy7zHi2Sb/h2aYI4LANtEVxu+XT3l6QJRlsbVm72CeIgNqUJ9C/TiDHY8TFQ7WCvIdsUCJITjiGjzw7DHhdCsqew21QYhzdjUy/aMYZe4riV3m8XLgcG/cAKi+xEEJCzaatGZY92HRSRDXipdC8gpIcmCPjFkvuyKLSsY+kxflu99PoN/w+AnRw+QcD1Xp48YPHL9Sm3eFUURRCcUaZD4gnJ0JBsWr6sig1xGSNRCALNg4wWR8SIxUzLQjzGboKaR3MYy51QhlkK8kTqiXiVaOb0sRXfP5Y5RPvdJst9cs2Np5FtLOuoUW19MYg3dph3Bmj4jf3wc6LFegVqB/NAdpYoOHkJhI6f4HePdJImGOTDptqQd8AuJRBeDPZ12T0jqA/d7hZZQfwED7DTLtw55vt4vAHnvLe7SZLXY/pcuxEEYF704tBV1+e87zZmv5eKH9GQPWSKgcxaARIEUg8glCy5JzM71LzPy9u7QvNCX7/XQlgqhncXvZQeaca+WOCL9kfkxlgGrea2pA6gA58kAoUAUGlpx+O4zkQhCGJJpJ+PNTQv2W1QbIGYDcOs0DGUddUxK2uY+0AHIkkg4l2qiyBEI6H5HwCQW6gqUSLgIwg7u7yVU8ZhMQKcGsp+QIwjbuiBEgVn3b5BGELYJ5jPA+MZCLWG7O0gyysi9ngIwz5Bnoe8Trf4CXabCgaw9M87xpC/eEyl//w9Hb2a9n8+0SARBCOSI/38+KMfIsLaos17Tv01rxvpGB1L/5eK9zJkjUMRBI2xAYvvyiCrV8dy/oN7SRT7dqBbY2iCgAznfjq5cVVbekdLEFRWt5je2IgbJxpBIHJA+mlK8hNtobwNpOaLJQmWGJuyKpJ9hJyOOJJ5UQ4Vmgvd3ONdahJBIOIvbA7ijUOd6K/W/zB+1ur1rHTwtEzysKFHsXysT/jBIAkRGhHRCM8+Idh7QpZO+PpA+PCinWMoLGvU5dx3Cu/QOJDFrlncCAKDtUVpe079dWgwQSCDQk9u+iEE0HwGhc4ShA+W3p1JBluOZUgepuzHffOAw6UREIRyDtjzs+cbVxipK2qQnBsqghBnQCupu0QjCGKZJH2JJZAS9dM1VOjaMPCkREOOrsphtBVViOxQJsPKKIogVAaqCdpnrScIbrh/3W5msyO692pSW2jAntYtth5kY2FTp9gDLcm2DpbkZRPjyf3/vOsG8iOPuPSdWdpOT/fmB9j8uxAEOrARtbtXjcz6l32g/q8UPwwc8ujzkARBx7ZL782i0JuO5by8va9qHEbL5KAiGwSuwR2fPds41lCwEWMHAIogRINa1bdJVIJAwXco8FksQXgopDMlhyqJAtZ4xGigDJaUgKmyiiIIlYVsAvZbZwmCfS9WtXq1M2fajwiQgrZIa2HZJ0jBmJKZ9sF520e73srd3oO+KzBJLykqoMQjdoLgCzEkqRgktcGqsr1HLhD91k+rPxsZXOazObC5HRp9M0DG2GlLxmf+4DafIXm/puxjLcuM+kLvZP0Zws2xbNFzjSm7YHUURRCqA/XIx0xUgiBWQpHoUiNfVkALau+q+nPou4VlbR/LsBRhMBZ3yHDGVgQhHJRqSR1FEKSNRMjTVrRpcbkH2V064Bl2aQJVDYzc6B4/gSG74YKdN0VkZNTr3YL7ARhZm/sNCekfuhSD0JkgBEgJRNjj0AQBv8WU5MHLbkmXI3D50Bjw5P5sTzmn29QpYRMEBkXA8OxP/5VRJUmsHL6DiiDUjB+mRCcIFFBoaYw2CeQ5QGnEw0nu9GcA+HeMWzc7Dt4Y4UxBEYRwUKoldRRBcNnI5a2nzmDARjrFP3DzjJC7QsSv0pLT+vfbPJJuIxUXRNbrw0IOurklEUoQIiYIS+/MCrn3A/IKu3hY8h++uYQhQUCAeZ8929iIp1FNRRGEagI+wmETnSDQcii2QSw5CwQkrmnTrQqUX4FsdWLx0/8KAM6JcA+ira4IQrTI1cB2iiCE2LQ1bV6/x8v1kchY14rcIs3zM8iLY9oF229yj1Egjd3rgwLKOV+vKggCIJuybHzmLW5LH/xY6V84RUwjaYUgK5KbpIsNwp5Pn23crJq/A4ogVPMGhDl8TSAItBRyXaTkRrEUItkDKdyMQyekhphnRXWMdgyKMUL5GUg1WRVFEYSqQDlBxlAEoYKNWNTphdQGZfWOukVktAdkou5kQ8bB22+qEOPeHxY8gAiPGVMJJUEwDmnr0HbI5ihsEkKpGBjC7KW3Z14LzD1x0vmPlS5AgCGuBIFUHuR0KUkVNJ11XTQpPew0opX0/iuCUEnAxrnbmkIQ6Mv2DgBcGuP6SYrolJ55BgBQvINoC+UMGGS5aEbbR6TtFEGIFLEaXL/Cw2tb5/k6ucqJNcrJl3yfiaBItnijTsZ9Ir6BjJlTnESnQEtO8RmoHzc1gP/Wb0R2PIgM5iPgOg3wUCrzvHXq5pFh5XX/tsXU+oc07Qtk6IsRUZFEQSIJa1OTUnv2cxmr24JfU7JScvZRlsUKCMIcRG3l6quzp/ecXtgoJUm7ERGfdbIzCEUQOMcrVtyRvcDtnT3/sdI7EYBS2vrJiDBSFL6cNoKADF75/J+Nb06A74EiCAmwCWFMoaYQBLGUaN8rGQoyICRbA3HTJ8+jf4SBVagqf7c8d2LsJqLmiiBEBFfNrlwhQdjeaU4rYMnbKsp54D+oAwMeGeeMzVVQfGY/ZB3HcAjb7EYUnOIZiKiPIhGUMbYZe/EgA1i2dUujy4fCUCtWoftmftXm9YuPIRppYgV5CTN+AtcZu+SCbX93TDHb66PCvYjY2Hefd5AgMB3+3cST87eFQwMTHvV5s7gH09EImSu7MhoEQQJJPNO9WveVd2TQD5VrOe+JveWMoxmb3k3FIAiCBcDR+un1Vuax8GwtKvf7Eu0PeYXfg8qddp3rvaYRBLogkRFgLPY19I2kXAJjAYBcEa+OcdcpzgHFO6jqoghCVSNejeNV+MNICY23d3r7BcbYLeaBbtOz2zIjihri8JSjDYaT38E8wAOpg0+/L0Vj9BMSEz23tNL2rIxOGSMR8Fbdo3/Ua9No13gANMaqNq89DwjjxNgCiyDCYvN2oPoDt/9dY2a6JV/p9WHBLcjgRUOnL544EYRj7MxV1+Q4Bh3qN6P4LQS8KgyC8BM7DL2X3pvlmMGMAislp2R8Cgh9/RIIf9TGwEiM1mvDAcqTPM2WPdkwHEvtqnjNFUGoCpRjH6OmEQSxYiIJsUYHfQMArosRwuqMEKgIQoybV5OaV0gQaDEF3RY0PHYMfTHexYEtL9RRSmAd9Pb8C3bJAfUTTn4HQRzCSQRlv93L86PxBVHw53dgpT22jKowleiaNtMncuT3BqzdYZ0G0ZElJwhfnLdjtC8ZUt8VpRneQ8d2AGf1QxEEDbDXyqFNvnB7qcIlCOyYp8fSOxtT+GbHMuDJ4h4aeFYBYnIAQeAWeZGMFJlFYoCzaWfXbzQmL8/XorrffUUQqnsHwhu/phKEBla6Y3JfrK5SXZIDsV5FEKpr56th3LAIAs1ra6f5d3gYezYwNkBwjkW73YFs3R/Q1kHyIA7UisYw9PshpAk0X7vkQHxm/CkBLZMdBNiqQVLfs7aMyHfbiy/bzeijc74EAZJpEn4JiV+14mSfAAzKEfHK87bfZOSgP/fjgunAYJRhQ+AmQUD4X/LRskHLrm3lGKugx+v7slK18s8oOEpoCQK8uezWbPdbSx5q56XuNXNT0VwEuyIVQwiCcDTtf8kr8/qRoVSiFEUQEmUnQs+jphIEWhWRfIqRkFINUJPBJGWepFwL1VUUQagu5Kth3LAJAs1tV5e3nwFgd4Z12w/K+Oh8gDpJHmgs+xhuagfz4DeRc0znbD10yxgpCAO1Jct8DljYY8so8k12LWuaT20DyR4jlLJxpkprdSNEFkEpGrh9dG7PRQVPMIT7fWJ7F4KgectzVw5rQVn6HEu/N4ovQ470o+Fug4CwtUFy1vEfj2bkRulYzntq70JAvDwSgsBZ+fGLJ+b8Xg3vbKghFUFIsA1xmU5NJgi0pOMBYG0VQ01ZO+l3KSzD6kqcW00iCHSxOliJWNTWrsmY1kgRHhFB2N114V8B4R0ETKKD3X7TFwemQM3ZiyGYKDjVoz6CxxA0wL8vbt4ObnNxkmLIKgfLrmDLAU/5KedtGu2or6e+V7eZ/jUD9IU1DZacOBOiA41Sn3nmmQt6AELPUAQBOc76YkiTa93ewL4zC/sCYytcvf6aVigAABZRSURBVBgsaQAHuHLl2Oy33foZ9FTJBYhskfHcQYIQYPAokj154ZnP/tn4bslyIlG+KIogJMpOhJ5HTScItDrKlji/iuBeDwA9AMBRklhFcxDD1CSCUMXQ1KrhKFX2oIgIAi2/8Lj3upRzbrk9BocaL4sAI13XkoBxEtdRBjOjuHs84DfIcJRHT/KWQfAoHpY0lgOOQoD6Mo1wkxyEIgqcghszuObszSNdfwC+aTOjwzHg/+O2nOt2iYI9fgL3MHh31Bnwy2ktrQU7qRjw7cNFW4d/N/oMujUElzzU+rQv+pghu9BHEHx2AZaKwDzsDy4fm90o1Jac93TJNtBZq3AJAikdGD/S7NOJzQsj2OqqqqoIQlUhHds4tYEgEAIniJtWbHBU2Lp5HDI8VjhImBUUQQgTqBpejY7O3hEThMpY9IbOb80DhCvNg93UGfh1+7BTY57enTdcGVF8/5/bz56DAKkIfAACZNoJgUFGbIux2y1wwNN7bBlFTMqx/Kf169OBsVFBERSDpCvmyoT34Xe92sFHw/4UgiBoN665LNs1j3nfN4vISHKim2eBdev/dfmYrJNCBUQa8HTpfxnAmT7nyTAkCEfq6W1WP5BN0dsSsSiCkIi7Ejyn2kIQaGWXAQBJ6DyVAD0FHjs9wcTkiiBUwkYnaJdjE4IgEDibOr1laPLlg9yUJrD3u2wcFnUksx86vNlFY9iIc0bGfDnhEAWyfzC9HNhvZ225jm4JruXLttPXIho6ySD3TOOzAPsEv9phTf/Oh5YM6dYgyEhxvzZyzYgccoVyLX1mFXFGU3T0LDAlCIg4YcXNOU+6dTLgmeLzGLIPAVm9cAkCcnxh8ROZsYaerczvgiIIlYlu/PquTQSBUDkXANbEDx5fT50BYEMl9BtLl4ogxIJezWr7TcIQhM2d5hn3bnv8BA58cpcN14yPB64/dnhjAEM2SQc4WfQXKn4CY3QG4/jum0dSTHbH8n/tpw9CDu8jQn27R4NvjCBDRoSjqUkw5YF+UJrVwO/FgLCJa+xP//lrrs+lVB6UIigmpbBlgNDdiJvgQhA0Du8uG5N9eSjMBkwqWct0drzhtSDCRIWUIOBhD087YdET9QzjzAQtiiAk6MbYplXbCAItbxIA3B6pXZfLdtE38iYAcJUiVuM2K4JQjeBX8dDfJxRBEIuX9fYI+FbnDVfHGnXMh+uGjrOaHOJ4AwA8EZZ9AuC27ptHhsy09mWb1zcwxjrSIEaMRp+9X6DDo92Qccmfj8eVF3YxJAF04DOuXbv60pxZbi9Bv1mlfTjoSxhCsm8QYThINgjWAb9idHbIfR34bOkCQBwCaAVCCoMgMGRnfvZYY8dgTVX80oYaThGEBNqMEFMhG6a5AKZaMYJyppX5MIImVVY1BwB+BIAWcRhxKgCMsQlU49BtXLoYBQARpbEHgI8B4C8xjm73Ho+xO9U8DAQ+qHaC8O3pU5Ob7Uv/qw6wMNArwjxmOeB/OOCFnTdcsz+MBYVd5ZcOsx7ychwKDLo5qR1kdQdH/OHMLSNPDdX5V22nU+yEdsas0a8qccwzIdkoTL+tJ9/UOUdjHJevuaSpawCWs+YUp6cB7guIUyAFiDaCF3Hwgoddu+KGrLdcScY/C7t6kpJWA2KTIIIgyIYUB8GwZ9Dhg88fz7gkbHCrr+L9RPwiHP6/AHB2hG1U9dgRICI8PMJuSN33W4Rtqro6uYeFVEtWMCFShV5Q1ZOOYDwiQDsiqE9V40EQSHIZS0rsCKesqsfFSDG/3cy0w5sb8G4wNNiloQKM8zu91UcD7QnGjFzmBlmxezGYhzd+hwArO2wYFmtyk4AZ/dz+raYI3sUIeHIoaQJSjkXEEWdsGel68H7VdsYNAEg3WF8xPRrMf4r4COKh8HbwejR8+PmLDx5pmZv93RnM2WsBAPrMLZwLyIaFJAgIRZi8v/XKke1d8yIMnFTyGyAcZ07IJkFwIgg6FJfr3lOWP5ET6Y9CdXzDKOFVpEFkTgOA76tjsnV8TDK+C5kXxIbPagC4CAAc1W8JhCWlPCebqSkRzol+P++zVBURNq3S6hkAQPlfDLurMAtdrn4Is65bNVIzkxpHlapBYCcA9I+LBKGw6zt0tDA5MoJTVERxUNrDHtvjMTrFRXBKt2zzOigDhncC135M4Wx7+81XbQ4Xx5/az/qRSALVt4eF9n2G8PoZW66jGOiu5au2M74DQDpwAkootQNhwRi82GvrDbfZczWITnq9VXyZBvwdI3mSHOlQliBwdnDFDaFdGvtMKuiVxJJW+2MbVEwQAGHq4rwM0ofWlJIJAJQYi/zG3SzLaZvJO+VTAHiopiysFs6TDF7vqOBmSJE6aa8o+6ERFKyGlD4A8CgAkIsiGRu6FboZ039Uv6YUis8yGgBI5RPKe4O8nWh/47Vv1M+JANC1pgBVA+dJl9SfAGAmkdy4EISiLgufBMbuk430BDCGHV1QVMXAUMhU137D9n1mayvSKNvVEQGJoBjkM2R/cODTum685v2KNunHtrPaaxpbioAdZJWAXfXgRf7+mVtGuXpUfN16ZnfU4GuzD5v9gbUgoboQzw0/DYD99XL1nDO+G+0oQeg9r/BHhnByBQTh0RU3ZD/sttb+L5RczDgsBITUcAkC07VJn+c1vrMi/BL0+UAAMLNSBhciCJTfwjW6ZIKuqTZOqxMA0H9uhb4TtFeRhFhJJJwoxggdaqK0BgDZTZiCIEXkwp0giyNi0C/Ed4ymSeui9cWzEOGiy1xczq54TqyW9EWSLMrZY/w2xgXk9Z1eSM3wtCCLx+OdSAINZI+KKMB0ipYoH65CFC+DL4dUDnaLtG8TjvOg/mHHTdeGzNT4U4dZkxjAeDlsc1A6Z0TOvKzNn7Zf6ypu/6b1zCu5BvOMNQdFWjDn5iZROHfrDZplauhbRO95hRTS9XjDa8FdgvDHylE5x4V6QQdMLn4agN3lk0BUqGLAo5zD5Usfzvqklrz4ahkKAYWAQkAhEAECcSEINF5R1wX9AbRlgQe5+S/5tuwcftkeL0BuJfoIzHlg1gjOv2AQhuBEUJvKy5K7d9s+tCQUNr90mDUeLT2Xa34HhEV727X5a7+VzkmKvm43sxkirBRiMCdpgm/uPmNGCyHEUb223UiiHaOcO6+wr8bgI0BoFIogIOO9V41s4uqHPeCl4pngZWayJqGisAiCIU3wGSWa49JnDNh5nz+YQVEuVVEIKAQUAgqBOohA3AgCYbe7y8K3kxkbGuyN4CcJAmMniYLjZzZRPbW3qyyc7BOc6mmgtem08SrXKIBr289ti4yv4oBtLZ7hIziyVwMy1v20TSNcDay+aTvzLgR42u6X4yRRENIEa76HvB5Pq36bRxoJWXovKNgFOiOjJ8MN0lGCwLSrVo7Mcg0J3euFXbkpLHUT6NAwXIIAOm5d8lCWgYEqCgGFgEJAIVA3EYgrQTjU9cMWR5l3JQPobFcNhGufIA72IBsDB52+PYuiCGdsHO7WfgbMAyE/mSef037z0N1u2/1Lxzd6MvSQzjPALsJ0XfRHQtybn5/cD/JcUx1/2/bNR5Hhg8H2F872CUJiwZG/32vbjZf2frvgJWBsLFiGiE4EATnb6tVYr/9cm+WqPun/UsnbDGGo6KciCQID2MyPYZ+lj7j3WTe/KmrVCgGFgEKgbiEQV4JA0BV3fXcBYzBEwBic5dB8ItsZ2FM7i8PZ+XAN3CDH5E5SREZRW65Xrh9r3m3zSFeS8GuH2eQB4btBCwmFrHZgDGb+vqnejUNhqORL4J/bd+1mno3ASOVS31kyEmThYKWOBvjqnPYTPrr0pLuBEkGFIAgrr80JuX99pxR00tCznpE7oxQMSTZSdFAxfLRkQuZf69bXQK1WIaAQUAgoBOwIxJ0gmCThvZHyQLrvdHLfAOP84sFnrWzWrwFQiuHjnDweHD0lpBu/TBQYwMLOG68e6jYbS9VArh7pPqIj21KY4gm9nieteecNQ12zGv7QbtZDXuCPyH0Eq0eCiUJBbkN45ZZz4XD9FN/B7iBBeH7ltTkU2tWxUFjmtKPaXkTQwiUIiPjS0vuzblVfE4WAQkAhoBBQCFQKQagKWLd3mr+ZM8ONzcqbHOw6aXAOS9kQEN/AnGDfzhuGrXIlCR1mT2LAxov2bkThpKwjKczFPZHafNvujQIAyA0gTEFun8Fqh5fG9YZtrTMcCQLo+NPR/Vqv/47Ldo4uicj6vVw8mQEbZ4ZxDkOCgHBMQxj8+YTMFVWxf2oMhYBCQCGgEEhsBGosQRCwbu00f4wOvLuHaT6phZNrpEP8hO2dNgwjn2TX8lsHyhgt7BkCIxuII50Bv+PETdc959bJ1x1mdvdw9rXdYFHMMdDWIpAozB3enf/UrTnFrQ8wUgQOl666Nsc1vkOPSfuy6qV5i0VuhjAJwogl92fOTuzXVc1OIaAQUAgoBKoKgRpPEARQ2497L5t7j/0CDAyrfyphqB0+67RhmGvc87VtZzcHD9vCwEyOZJcmiM+4Dh1O2TKCcjE4lu/bvfEeAlwSrExwjg8hvB1+OqUFzLvydODMirHIGbBy+GDlyBzXvAiD/rW7gbdh8kFBDsKTIOD+JfdlNa6ql06NoxBQCCgEFAKJj0CtIQgC6m2d55OLIen96/lu/7a4CH5vBNyKyAd02jjcMef6CshLat6h00wEuEbeymAbCJzRbdOI6922+8d2M6/kTJsnDDadpAl2QiPkFa+OPgc3tc9mVnrndVh2bODqUS1dXTX7v1r8HCDcHj5BwJ1e0PuvuCf3j8R/XdUMFQIKAYWAQqCqEKh1BMEiBWx757f3IWAjAaRbfgcE8HbcMMxMn+xS1nWcq3NELZTrJQN4/oRNwx2NBn/ttiDl2OEjvlCxbkSBhrd7dBBRuP/xP4Pu0QA5e3n1NTlj3ebZ//XStuDlm2VyUKEEAeH9JXdnuoaPrqoXUY2jEFAIKAQUAomFQK0kCALirZ3nU+rU84Nu/5KRIB36GrLRbTdeOc1ta9Z3mHMzMjbF2W7A57K5Frh3gJP75M/t33xNB7ghgGBIUg0niYKsHvm5WzOYM7z7lJVX5dwS6vXpN624jHFICZcgoMa2LrsjUwVESqzvpJqNQkAhoBBICARqNUEghLd3ebsEETLtyZMC7RPYWq7z/h3yh+1xlSJ0mvsUINwjnjvd9BHx6An5mxowyDPMDRCQ/dRu9pmMGckvAgItyZIN+ruTfYJMSDRNO6t7/rVfu82v32vFrwPC9b4YB6JDNy8GSvass9OW3J0ZaxrWhHiR1SQUAgoBhYBCIL4I1HqCQHBt6/T2Z4zB+XZnQpvaYU67DVcNdyUIHeYOBAZLAqQRiIHpoc2HfyCgkaxJA+itA/Y3D3rzYUBeCqkzN7WDkQ7aJBD5Z20Z2cFpfj2nF7ZI4ex7QNYkbIKAMG/pP7KGxfd1Ur0pBBQCCgGFQG1BoE4QhB1d5l+JyGaBizeCuKm323BVSDzyO83uW45aUJwAp0iQbh4PdqJglxw4EQX6jDFG9gmfnbVlZJDXRd/pReWMs6SAMMoVSBAyW2cmLRzKHKNA1paXW61DIaAQUAgoBKJHoE4QBIJne+f5EwDY4wIq80Jvj20A+cfQ27vzhmu2O0FKKoONHeetQsBe4cc18Pckj+maLdKQNoia/pwSVi8bNZY84LT8q7eIXvvOKLoWEN5gcipoI7GTVcNBxaCVe7ssubtJvPO0R/8WqpYKAYWAQkAhkHAI1BmCQMjv7Pz2JxzgQnkXAm/6RkihIa3XX/Gu206t7zRnLAPtRSMrsi0iokk5nOIv2C0gzJgK4agdqM+AKJCIJd23jMymz/tN29UNk1K+B8RkgyBQmmaRdtJqZHxOxZ+LYe6yfZkjIM9QRqiiEFAIKAQUAgoBRwTqFEHY1WXBmQzgcx0xI1gC4D/ED5ceSj+u6PoDIUjCcww0n0ujY8IoW+wFkzyQzQI+dVRnL5yxZfgu+uzX9rOG6AB3AsBZFdknCALCGFxxev51C/rOKJ4MgLeZqoWKCQLVWHp7lkd9FxQCCgGFgEJAIVARAnWKIBhShC4L1jCAc91u+4ZEAfHbNhuu6u4GHp3H+Z3e4vb8DnL6adFWzuSICLeckH/NFHu/37ebmZGkeQqQbCSstNJ2yYExX4t0IOCWf43ps2tPbvrZ9DnTrW2sQILgYXDS4tuyfqnopVDPFQIKAYWAQkAhUOcIAm357i4LliLAAKdD3CIOyBmMbLvuijfdXpGNHeYMY5pGz5NsKgArPZS/pTCC5MhGnJB/tWO+g186zJ4CgDdzB28HQWYESaA/vzizHbw3+ERjkLAIAocpy27LChlHQX0dFAIKAYWAQkAhIBCokwRhV9eFQwBxgf01sHkjlLRaf4Wh63cq2G1BypYyfTsC5PpDN0ukwEnFwGBE1w3OBIFa/tp+zgJgOETYRVRkyHjHQxeFTRDKDmpZX9yXUapefYWAQkAhoBBQCISDQJ0kCATM7i4LPgGAC0N5I3COb7TZeKUvS6QToJs7zfMCgEcmCaJPMxWkbKDIpnbZOOwmt435teOcCwCRsjSm+voLET+htHE9eOHaHrCvYX2zS2cVw9rD5YfO+OqO1kfCeSFUHYWAQkAhoBBQCBACdZYg7OzyVk4SSy4kEBzjGJjXdy9HGNl6wxVz3F6XLZ3evg+BPymei0ROdhcBYcjYZePVITH/rf2s3zhjx/n7MwmGm8fDrEtPhR+Oa+lOEBg7ZdnNWT+p110hoBBQCCgEFAKRIFBnCQKBVNB1wWAAbRFFHXbKs2BcyhHntlx/RUA2Rxng9Z1eSE2B3D8QwJfTwK5y8EkUjFOe7WbgPaXTxhEFbhu1tsPs7xHgT/JzJ4mC8GicMP58fiQtWTMTMwlfS/iFg95j5dgmByN5IVRdhYBCQCGgEFAI1GkJAi2+sOv0RgCNVyLgaeJ1kL0OxGc68kWt1l/5Z7dXJr/LW8d5UPvN0d3RCsYkqTI4Z3BDl/XDZrr193uHuWMQ8GUhjZDrOdknbGiTjS9d3YP5CQIeTYLUtovHNHIlIer1VwgoBBQCCgGFQCgE6rQEgYD5ueO81s2SkrfaoyoGEAXGDnu8eEqTjUM3uIG5pdP8NxmDEZbUIaCaOOjF5Z4eph5Nqt96+1BXu4DfO8xZjgD9qG5QDglBOiT7hPkXnIL/d0qrMubFB5ePzX1GvfYKAYWAQkAhoBCIBYE6TxAMScJx7/4dEKeKw1gAGqh2YG82XzfkOjewtx/3ZjbXU/8LAB3Nfvwhk/39WfYEpk3Bmk4bh/V2629T+7ealjG+20l6EDA/y6lyfZucJ14Y1uOdlX9X2Rlj+UKotgoBhYBCQCFgIqAIAgDs6TS/o8eTtAwA2vo9EPxKASFN0BAGNV0/NCCjo/wibe88/2UOMEb+zJYx0nhkqgkY6qDf0XnDNZPdXsa17ecO1xjOkj0tJGmClwEsZwA7jt80fJR6oRUCCgGFgEJAIRBPBBRBsNAsOf69EznnP8u38yCJAiJfu25taj/II9dGx7Kl07xpHqbdaM/maCcKVjqmTe03DDMkDk5lQ8f3miAc+ZoDtLXSPm8H5Hdw8OxhGvcev3H4l/F8GVRfCgGFgEJAIaAQEAj8P37lfNyNrIlNAAAAAElFTkSuQmCC;" parent="1" vertex="1">
          <mxGeometry x="463" y="-480" width="120.5" height="36.5" as="geometry" />
        </mxCell>
        <mxCell id="N8xC8AFXhA9VaVeWU0zL-60" value="CI/CD pipeline" style="text;html=1;strokeColor=none;fillColor=none;align=center;verticalAlign=middle;whiteSpace=wrap;rounded=0;" parent="1" vertex="1">
          <mxGeometry x="270" y="-700" width="100" height="20" as="geometry" />
        </mxCell>
        <mxCell id="UEzPUAAOIrF-is8g5C7q-178" value="AWS&lt;br&gt;CodePipeline&lt;br&gt;" style="outlineConnect=0;fontColor=#232F3E;gradientColor=#4D72F3;gradientDirection=north;fillColor=#3334B9;strokeColor=#ffffff;dashed=0;verticalLabelPosition=bottom;verticalAlign=top;align=center;html=1;fontSize=12;fontStyle=0;aspect=fixed;shape=mxgraph.aws4.resourceIcon;resIcon=mxgraph.aws4.codepipeline;labelBackgroundColor=#ffffff;" parent="1" vertex="1">
          <mxGeometry x="396" y="-740" width="78" height="78" as="geometry" />
        </mxCell>
        <mxCell id="N8xC8AFXhA9VaVeWU0zL-64" value="NAT gateway" style="outlineConnect=0;dashed=0;verticalLabelPosition=bottom;verticalAlign=top;align=center;html=1;shape=mxgraph.aws3.vpc_nat_gateway;fillColor=#F58534;gradientColor=none;labelBackgroundColor=none;" parent="1" vertex="1">
          <mxGeometry x="510" y="-313" width="50" height="52" as="geometry" />
        </mxCell>
        <mxCell id="N8xC8AFXhA9VaVeWU0zL-70" value="Internet gateway" style="sketch=0;outlineConnect=0;fontColor=#232F3E;gradientColor=none;fillColor=#A166FF;strokeColor=none;dashed=0;verticalLabelPosition=bottom;verticalAlign=top;align=center;html=1;fontSize=12;fontStyle=0;aspect=fixed;pointerEvents=1;shape=mxgraph.aws4.internet_gateway;labelBackgroundColor=none;" parent="1" vertex="1">
          <mxGeometry x="780" y="-390" width="62" height="62" as="geometry" />
        </mxCell>
        <mxCell id="N8xC8AFXhA9VaVeWU0zL-84" style="edgeStyle=orthogonalEdgeStyle;rounded=0;orthogonalLoop=1;jettySize=auto;html=1;exitX=0.5;exitY=1;exitDx=0;exitDy=0;exitPerimeter=0;startArrow=classic;startFill=1;" parent="1" source="N8xC8AFXhA9VaVeWU0zL-76" target="N8xC8AFXhA9VaVeWU0zL-78" edge="1">
          <mxGeometry relative="1" as="geometry" />
        </mxCell>
        <mxCell id="N8xC8AFXhA9VaVeWU0zL-76" value="WAF" style="sketch=0;points=[[0,0,0],[0.25,0,0],[0.5,0,0],[0.75,0,0],[1,0,0],[0,1,0],[0.25,1,0],[0.5,1,0],[0.75,1,0],[1,1,0],[0,0.25,0],[0,0.5,0],[0,0.75,0],[1,0.25,0],[1,0.5,0],[1,0.75,0]];outlineConnect=0;fontColor=#232F3E;gradientColor=#F54749;gradientDirection=north;fillColor=#C7131F;strokeColor=#ffffff;dashed=0;verticalLabelPosition=bottom;verticalAlign=top;align=center;html=1;fontSize=12;fontStyle=0;aspect=fixed;shape=mxgraph.aws4.resourceIcon;resIcon=mxgraph.aws4.waf;labelBackgroundColor=none;" parent="1" vertex="1">
          <mxGeometry x="683" y="-505.5" width="62" height="62" as="geometry" />
        </mxCell>
        <mxCell id="N8xC8AFXhA9VaVeWU0zL-81" style="edgeStyle=orthogonalEdgeStyle;rounded=0;orthogonalLoop=1;jettySize=auto;html=1;startArrow=classic;startFill=1;" parent="1" source="N8xC8AFXhA9VaVeWU0zL-78" target="N8xC8AFXhA9VaVeWU0zL-70" edge="1">
          <mxGeometry relative="1" as="geometry" />
        </mxCell>
        <mxCell id="N8xC8AFXhA9VaVeWU0zL-78" value="ELB" style="outlineConnect=0;dashed=0;verticalLabelPosition=bottom;verticalAlign=top;align=center;html=1;shape=mxgraph.aws3.classic_load_balancer;fillColor=#F58534;gradientColor=none;labelBackgroundColor=none;" parent="1" vertex="1">
          <mxGeometry x="689" y="-385" width="50" height="52" as="geometry" />
        </mxCell>
        <mxCell id="N8xC8AFXhA9VaVeWU0zL-83" value="Vue.js" style="shape=image;html=1;verticalAlign=top;verticalLabelPosition=bottom;labelBackgroundColor=#ffffff;imageAspect=0;aspect=fixed;image=https://cdn4.iconfinder.com/data/icons/logos-brands-5/24/vue-dot-js-128.png;fillColor=none;" parent="1" vertex="1">
          <mxGeometry x="360" y="-417" width="78" height="78" as="geometry" />
        </mxCell>
        <mxCell id="N8xC8AFXhA9VaVeWU0zL-88" value="ACL" style="sketch=0;outlineConnect=0;fontColor=#232F3E;gradientColor=none;fillColor=#A166FF;strokeColor=none;dashed=0;verticalLabelPosition=bottom;verticalAlign=top;align=center;html=1;fontSize=12;fontStyle=0;pointerEvents=1;shape=mxgraph.aws4.network_access_control_list;labelBackgroundColor=none;" parent="1" vertex="1">
          <mxGeometry x="689" y="-301" width="50" height="50" as="geometry" />
        </mxCell>
        <mxCell id="5HkTwEeiS4sHJ6UJ4fYf-1" value="DNS domain" style="sketch=0;points=[[0,0,0],[0.25,0,0],[0.5,0,0],[0.75,0,0],[1,0,0],[0,1,0],[0.25,1,0],[0.5,1,0],[0.75,1,0],[1,1,0],[0,0.25,0],[0,0.5,0],[0,0.75,0],[1,0.25,0],[1,0.5,0],[1,0.75,0]];outlineConnect=0;fontColor=#232F3E;gradientColor=#945DF2;gradientDirection=north;fillColor=#5A30B5;strokeColor=#ffffff;dashed=0;verticalLabelPosition=bottom;verticalAlign=top;align=center;html=1;fontSize=12;fontStyle=0;aspect=fixed;shape=mxgraph.aws4.resourceIcon;resIcon=mxgraph.aws4.route_53;" vertex="1" parent="1">
          <mxGeometry x="872" y="-474" width="60" height="60" as="geometry" />
        </mxCell>
        <mxCell id="5HkTwEeiS4sHJ6UJ4fYf-6" style="edgeStyle=orthogonalEdgeStyle;rounded=0;orthogonalLoop=1;jettySize=auto;html=1;" edge="1" parent="1" source="5HkTwEeiS4sHJ6UJ4fYf-2" target="N8xC8AFXhA9VaVeWU0zL-70">
          <mxGeometry relative="1" as="geometry" />
        </mxCell>
        <mxCell id="5HkTwEeiS4sHJ6UJ4fYf-7" value="" style="edgeStyle=orthogonalEdgeStyle;rounded=0;orthogonalLoop=1;jettySize=auto;html=1;startArrow=classic;startFill=1;" edge="1" parent="1" source="5HkTwEeiS4sHJ6UJ4fYf-2" target="N8xC8AFXhA9VaVeWU0zL-70">
          <mxGeometry relative="1" as="geometry" />
        </mxCell>
        <mxCell id="5HkTwEeiS4sHJ6UJ4fYf-8" style="edgeStyle=orthogonalEdgeStyle;rounded=0;orthogonalLoop=1;jettySize=auto;html=1;startArrow=classic;startFill=1;" edge="1" parent="1" source="5HkTwEeiS4sHJ6UJ4fYf-2" target="N8xC8AFXhA9VaVeWU0zL-44">
          <mxGeometry relative="1" as="geometry" />
        </mxCell>
        <mxCell id="5HkTwEeiS4sHJ6UJ4fYf-2" value="SSL" style="shape=mxgraph.cisco.misc.ssl_terminator;html=1;pointerEvents=1;dashed=0;fillColor=#036897;strokeColor=#ffffff;strokeWidth=2;verticalLabelPosition=bottom;verticalAlign=top;align=center;outlineConnect=0;" vertex="1" parent="1">
          <mxGeometry x="870" y="-388.5" width="64" height="59" as="geometry" />
        </mxCell>
        <mxCell id="5HkTwEeiS4sHJ6UJ4fYf-11" value="&lt;font color=&quot;#ff0000&quot;&gt;Security Group&lt;/font&gt;" style="fontStyle=0;verticalAlign=top;align=center;spacingTop=-2;fillColor=none;rounded=0;whiteSpace=wrap;html=1;strokeColor=#FF0000;strokeWidth=2;dashed=1;container=1;collapsible=0;expand=0;recursiveResize=0;" vertex="1" parent="1">
          <mxGeometry x="-71" y="-520" width="311" height="280" as="geometry" />
        </mxCell>
        <mxCell id="5HkTwEeiS4sHJ6UJ4fYf-12" value="&lt;font color=&quot;#ff0000&quot;&gt;Security Group&lt;/font&gt;" style="fontStyle=0;verticalAlign=top;align=center;spacingTop=-2;fillColor=none;rounded=0;whiteSpace=wrap;html=1;strokeColor=#FF0000;strokeWidth=2;dashed=1;container=1;collapsible=0;expand=0;recursiveResize=0;" vertex="1" parent="1">
          <mxGeometry x="250" y="-520" width="370" height="280" as="geometry" />
        </mxCell>
      </root>
    </mxGraphModel>
  </diagram>
</mxfile>
